<svg id="svg" version="1.1" xmlns="http://www.w3.org/2000/svg" xmlns:xlink="http://www.w3.org/1999/xlink" width="400" height="400" viewBox="0, 0, 400,400"><g id="svgg"><path id="path0" d="M185.800 58.666 C 171.925 59.512,161.081 60.495,153.200 61.622 C 129.444 65.018,97.955 71.916,90.862 75.277 C 82.861 79.069,78.660 85.600,77.404 96.200 C 73.637 127.998,74.612 166.585,79.823 192.000 C 92.642 254.515,136.222 309.060,195.807 337.167 L 200.175 339.227 208.587 335.044 C 275.504 301.775,316.245 242.286,324.084 166.400 C 325.636 151.370,324.179 100.987,321.938 92.200 C 318.804 79.912,313.212 75.491,295.200 71.061 C 256.050 61.432,215.600 56.849,185.800 58.666 M340.048 71.800 C 340.753 73.120,341.500 74.380,341.708 74.600 C 342.293 75.219,340.148 71.104,339.415 70.200 C 339.058 69.760,339.342 70.480,340.048 71.800 M342.000 75.327 C 342.000 75.422,342.464 76.550,343.031 77.833 C 344.512 81.181,346.003 87.031,346.847 92.800 L 347.578 97.800 347.418 93.800 C 347.244 89.430,346.020 84.100,343.967 78.778 C 342.968 76.188,342.000 74.489,342.000 75.327 M205.591 88.700 C 226.394 109.768,241.071 136.339,246.967 163.606 C 250.759 181.147,250.825 201.701,247.132 215.400 C 241.619 235.849,232.090 251.668,215.145 268.500 L 208.400 275.201 208.400 287.600 L 208.400 300.000 200.000 300.000 L 191.600 300.000 191.600 287.649 L 191.600 275.297 184.257 267.949 C 171.843 255.524,164.397 245.070,158.452 231.720 C 140.853 192.196,151.112 140.505,184.753 99.200 C 188.968 94.024,199.123 83.600,199.949 83.600 C 200.282 83.600,202.822 85.895,205.591 88.700 M347.709 99.600 C 347.709 100.590,347.787 100.995,347.882 100.500 C 347.978 100.005,347.978 99.195,347.882 98.700 C 347.787 98.205,347.709 98.610,347.709 99.600 " stroke="none" fill="#5c443b" fill-rule="evenodd"></path><path id="path1" d="M177.800 34.228 C 148.584 36.141,114.218 42.007,89.606 49.283 C 72.468 54.350,59.606 66.887,55.220 82.800 C 51.370 96.769,49.097 147.610,51.321 170.000 C 58.286 240.094,91.429 297.299,149.000 338.593 C 162.567 348.324,182.072 359.306,195.228 364.621 L 199.800 366.468 201.800 365.778 C 204.679 364.784,214.819 360.203,218.800 358.097 C 227.301 353.601,229.274 352.518,233.400 350.084 C 300.060 310.773,341.138 246.662,348.659 170.200 C 349.988 156.683,349.571 117.432,347.942 102.704 C 347.705 100.562,347.615 98.537,347.743 98.204 C 347.871 97.872,347.832 97.600,347.656 97.600 C 347.481 97.600,347.111 95.614,346.834 93.187 C 346.259 88.149,344.564 81.294,343.043 77.857 C 342.473 76.568,342.094 75.372,342.201 75.199 C 342.308 75.026,342.108 74.773,341.756 74.639 C 341.380 74.494,341.215 74.139,341.354 73.776 C 341.484 73.436,341.434 73.256,341.242 73.374 C 340.880 73.598,339.729 71.253,339.915 70.670 C 339.973 70.489,339.835 70.455,339.610 70.594 C 339.384 70.733,339.200 70.657,339.200 70.424 C 339.200 69.671,339.056 69.413,338.221 68.670 C 337.769 68.268,337.670 68.072,338.000 68.234 C 338.355 68.409,338.255 68.135,337.754 67.565 C 337.289 67.034,336.569 66.165,336.154 65.633 C 332.006 60.312,325.078 54.905,318.918 52.181 C 308.653 47.641,277.811 40.880,248.000 36.635 C 229.207 33.958,198.169 32.894,177.800 34.228 M219.821 59.010 C 249.194 60.962,297.370 69.654,308.686 75.042 C 314.981 78.040,319.976 84.507,321.938 92.200 C 324.179 100.987,325.636 151.370,324.084 166.400 C 316.245 242.286,275.504 301.775,208.587 335.044 L 200.175 339.227 195.807 337.167 C 136.222 309.060,92.642 254.515,79.823 192.000 C 74.612 166.585,73.637 127.998,77.404 96.200 C 78.660 85.600,82.861 79.069,90.862 75.277 C 97.955 71.916,129.444 65.018,153.200 61.622 C 161.081 60.495,171.925 59.512,185.800 58.666 C 192.184 58.277,211.767 58.475,219.821 59.010 M193.994 89.100 L 188.600 94.600 194.005 89.300 C 196.978 86.385,199.543 84.000,199.705 84.000 C 199.867 84.000,200.000 121.233,200.000 166.740 L 200.000 249.481 204.241 262.144 L 208.482 274.808 210.741 272.846 C 228.182 257.698,241.320 236.958,247.132 215.400 C 256.674 180.002,243.252 132.705,213.646 97.400 C 209.619 92.598,200.703 83.600,199.972 83.600 C 199.651 83.600,196.961 86.075,193.994 89.100 M187.375 96.100 L 186.200 97.400 187.500 96.225 C 188.712 95.130,188.984 94.800,188.675 94.800 C 188.606 94.800,188.021 95.385,187.375 96.100 M183.532 100.700 C 181.601 102.985,179.870 105.313,180.290 105.060 C 180.811 104.746,184.559 100.000,184.285 100.000 C 184.197 100.000,183.858 100.315,183.532 100.700 M176.400 110.200 C 175.719 111.190,175.252 112.000,175.362 112.000 C 175.472 112.000,176.119 111.190,176.800 110.200 C 177.481 109.210,177.948 108.400,177.838 108.400 C 177.728 108.400,177.081 109.210,176.400 110.200 M174.553 112.900 C 173.176 115.236,173.086 115.435,173.787 114.600 C 174.600 113.632,175.300 112.400,175.038 112.400 C 174.933 112.400,174.715 112.625,174.553 112.900 M162.672 134.219 C 161.732 136.189,161.864 136.524,162.847 134.662 C 163.293 133.816,163.587 133.054,163.501 132.967 C 163.414 132.881,163.041 133.444,162.672 134.219 M161.265 137.417 C 160.595 138.888,160.723 139.202,161.447 137.865 C 161.786 137.240,161.988 136.654,161.896 136.563 C 161.805 136.471,161.521 136.856,161.265 137.417 M157.045 148.250 C 156.690 149.291,156.413 150.335,156.429 150.571 C 156.445 150.807,156.805 150.024,157.228 148.832 C 157.651 147.640,157.928 146.595,157.844 146.510 C 157.759 146.426,157.400 147.208,157.045 148.250 M153.422 161.022 C 153.272 161.825,153.228 162.562,153.326 162.660 C 153.424 162.757,153.627 162.181,153.778 161.378 C 153.928 160.575,153.972 159.838,153.874 159.740 C 153.776 159.643,153.573 160.219,153.422 161.022 M150.509 180.000 C 150.509 180.990,150.587 181.395,150.682 180.900 C 150.778 180.405,150.778 179.595,150.682 179.100 C 150.587 178.605,150.509 179.010,150.509 180.000 M150.170 191.000 C 150.171 195.840,150.229 197.765,150.299 195.278 C 150.369 192.791,150.369 188.831,150.298 186.478 C 150.228 184.125,150.170 186.160,150.170 191.000 M150.501 201.800 C 150.505 202.680,150.587 202.993,150.683 202.495 C 150.779 201.998,150.775 201.278,150.675 200.895 C 150.575 200.513,150.496 200.920,150.501 201.800 M153.050 216.400 C 153.190 217.170,153.461 218.160,153.654 218.600 C 153.894 219.149,153.924 218.961,153.750 218.000 C 153.610 217.230,153.339 216.240,153.146 215.800 C 152.906 215.251,152.876 215.439,153.050 216.400 M157.628 229.800 C 157.628 230.020,157.886 230.650,158.200 231.200 C 158.514 231.750,158.772 232.020,158.772 231.800 C 158.772 231.580,158.514 230.950,158.200 230.400 C 157.886 229.850,157.628 229.580,157.628 229.800 M159.228 233.400 C 159.228 233.620,159.486 234.250,159.800 234.800 C 160.114 235.350,160.372 235.620,160.372 235.400 C 160.372 235.180,160.114 234.550,159.800 234.000 C 159.486 233.450,159.228 233.180,159.228 233.400 M161.400 238.000 C 161.957 239.100,162.503 240.000,162.613 240.000 C 162.723 240.000,162.357 239.100,161.800 238.000 C 161.243 236.900,160.697 236.000,160.587 236.000 C 160.477 236.000,160.843 236.900,161.400 238.000 M163.400 241.600 C 163.741 242.260,164.111 242.800,164.221 242.800 C 164.331 242.800,164.141 242.260,163.800 241.600 C 163.459 240.940,163.089 240.400,162.979 240.400 C 162.869 240.400,163.059 240.940,163.400 241.600 M165.785 245.500 C 166.402 246.435,166.983 247.200,167.076 247.200 C 167.364 247.200,165.833 244.766,165.232 244.269 C 164.920 244.011,165.168 244.565,165.785 245.500 M169.600 251.200 C 170.070 251.860,170.544 252.400,170.654 252.400 C 170.764 252.400,170.470 251.860,170.000 251.200 C 169.530 250.540,169.056 250.000,168.946 250.000 C 168.836 250.000,169.130 250.540,169.600 251.200 M175.199 258.399 C 176.119 259.498,177.081 260.526,177.336 260.683 C 177.591 260.839,176.923 259.940,175.851 258.684 C 174.780 257.428,173.818 256.400,173.714 256.400 C 173.610 256.400,174.279 257.299,175.199 258.399 M180.400 264.200 C 181.817 265.630,183.067 266.800,183.177 266.800 C 183.287 266.800,182.217 265.630,180.800 264.200 C 179.383 262.770,178.133 261.600,178.023 261.600 C 177.913 261.600,178.983 262.770,180.400 264.200 M186.600 270.342 C 187.700 271.509,189.320 273.021,190.200 273.701 C 192.052 275.132,191.703 274.767,187.600 270.985 C 185.172 268.746,184.981 268.623,186.600 270.342 " stroke="none" fill="#54b056" fill-rule="evenodd"></path><path id="path2" d="M0.000 200.000 L 0.000 400.000 200.000 400.000 L 400.000 400.000 400.000 200.000 L 400.000 0.000 200.000 0.000 L 0.000 0.000 0.000 200.000 M228.000 34.151 C 250.124 36.074,270.956 39.310,291.005 43.939 C 317.536 50.064,324.870 53.171,333.150 61.796 C 342.858 71.908,347.065 81.849,347.993 96.870 C 348.215 100.461,348.570 105.920,348.782 109.000 C 349.877 124.913,350.062 129.793,350.082 143.400 C 350.109 160.939,349.284 172.006,346.773 187.800 C 345.742 194.278,342.327 209.592,341.019 213.600 C 340.480 215.250,339.593 218.130,339.047 220.000 C 335.495 232.163,326.456 253.084,320.177 263.677 C 319.420 264.955,318.137 267.125,317.327 268.500 C 302.978 292.847,276.805 321.018,253.210 337.513 C 251.774 338.516,249.700 340.011,248.600 340.835 C 236.798 349.677,203.193 367.361,199.550 366.646 C 196.334 366.015,179.422 357.923,169.600 352.315 C 136.930 333.663,108.038 306.852,87.579 276.200 C 85.670 273.340,83.075 269.200,81.811 267.000 C 80.548 264.800,79.369 262.820,79.192 262.600 C 78.554 261.808,70.843 246.095,68.789 241.400 C 60.393 222.211,54.191 198.449,51.614 175.600 C 51.155 171.530,50.695 167.660,50.591 167.000 C 49.564 160.437,49.668 132.255,50.780 116.000 C 52.892 85.127,55.245 76.114,63.991 65.411 C 72.465 55.040,80.253 50.898,100.400 46.045 C 114.987 42.532,118.915 41.651,123.800 40.796 C 126.440 40.334,130.850 39.526,133.600 38.999 C 142.017 37.388,160.352 35.125,172.400 34.210 C 176.690 33.885,181.100 33.547,182.200 33.459 C 187.234 33.059,221.374 33.575,228.000 34.151 M199.013 254.100 C 198.632 255.475,197.737 258.220,197.025 260.200 C 196.313 262.180,194.889 266.410,193.861 269.600 L 191.992 275.400 191.996 287.500 L 192.000 299.600 200.000 299.600 L 208.000 299.600 208.000 287.453 L 208.000 275.305 205.389 267.553 C 203.953 263.289,202.198 257.957,201.489 255.704 C 199.973 250.887,199.914 250.848,199.013 254.100 " stroke="none" fill="#f4f4f400" fill-rule="evenodd"></path><path id="path3" d="M195.921 33.499 C 198.188 33.570,201.788 33.570,203.921 33.498 C 206.055 33.426,204.200 33.368,199.800 33.368 C 195.400 33.368,193.655 33.427,195.921 33.499 M182.307 33.890 C 183.026 33.979,184.106 33.977,184.707 33.886 C 185.308 33.795,184.720 33.722,183.400 33.724 C 182.080 33.726,181.588 33.801,182.307 33.890 M215.300 33.891 C 216.125 33.978,217.475 33.978,218.300 33.891 C 219.125 33.805,218.450 33.734,216.800 33.734 C 215.150 33.734,214.475 33.805,215.300 33.891 M176.300 34.282 C 176.795 34.378,177.605 34.378,178.100 34.282 C 178.595 34.187,178.190 34.109,177.200 34.109 C 176.210 34.109,175.805 34.187,176.300 34.282 M221.900 34.282 C 222.395 34.378,223.205 34.378,223.700 34.282 C 224.195 34.187,223.790 34.109,222.800 34.109 C 221.810 34.109,221.405 34.187,221.900 34.282 M170.500 34.676 C 170.885 34.776,171.515 34.776,171.900 34.676 C 172.285 34.575,171.970 34.493,171.200 34.493 C 170.430 34.493,170.115 34.575,170.500 34.676 M228.100 34.676 C 228.485 34.776,229.115 34.776,229.500 34.676 C 229.885 34.575,229.570 34.493,228.800 34.493 C 228.030 34.493,227.715 34.575,228.100 34.676 M65.375 64.100 L 64.200 65.400 65.500 64.225 C 66.712 63.130,66.984 62.800,66.675 62.800 C 66.606 62.800,66.021 63.385,65.375 64.100 M193.562 89.901 C 190.393 93.147,186.731 97.152,185.425 98.801 C 184.119 100.451,182.398 102.610,181.601 103.600 C 154.012 137.888,143.413 185.811,155.248 222.756 C 158.765 233.735,166.164 246.906,174.596 257.200 C 179.649 263.369,191.255 274.982,191.742 274.357 C 191.809 274.270,193.629 268.849,195.786 262.310 C 197.943 255.770,199.819 250.488,199.954 250.572 C 200.089 250.655,200.154 213.211,200.098 167.362 C 200.042 121.513,199.845 84.000,199.660 84.000 C 199.476 84.000,196.732 86.656,193.562 89.901 M52.493 98.800 C 52.493 99.570,52.575 99.885,52.676 99.500 C 52.776 99.115,52.776 98.485,52.676 98.100 C 52.575 97.715,52.493 98.030,52.493 98.800 M51.301 111.800 C 51.305 112.680,51.387 112.993,51.483 112.495 C 51.579 111.998,51.575 111.278,51.475 110.895 C 51.375 110.513,51.296 110.920,51.301 111.800 M348.893 117.200 C 348.893 117.970,348.975 118.285,349.076 117.900 C 349.176 117.515,349.176 116.885,349.076 116.500 C 348.975 116.115,348.893 116.430,348.893 117.200 M349.320 124.400 C 349.320 125.610,349.395 126.105,349.487 125.500 C 349.578 124.895,349.578 123.905,349.487 123.300 C 349.395 122.695,349.320 123.190,349.320 124.400 M349.777 143.000 C 349.777 149.380,349.832 151.934,349.899 148.676 C 349.967 145.417,349.966 140.197,349.899 137.076 C 349.831 133.954,349.776 136.620,349.777 143.000 M50.176 143.200 C 50.176 149.470,50.232 152.035,50.299 148.900 C 50.367 145.765,50.367 140.635,50.299 137.500 C 50.232 134.365,50.176 136.930,50.176 143.200 M50.520 161.200 C 50.520 162.410,50.595 162.905,50.687 162.300 C 50.778 161.695,50.778 160.705,50.687 160.100 C 50.595 159.495,50.520 159.990,50.520 161.200 M349.320 161.200 C 349.320 162.410,349.395 162.905,349.487 162.300 C 349.578 161.695,349.578 160.705,349.487 160.100 C 349.395 159.495,349.320 159.990,349.320 161.200 M110.383 304.900 C 112.041 306.666,112.400 306.984,112.400 306.683 C 112.400 306.619,111.545 305.764,110.500 304.783 L 108.600 303.000 110.383 304.900 M289.381 304.900 L 287.800 306.600 289.500 305.019 C 291.081 303.548,291.384 303.200,291.081 303.200 C 291.016 303.200,290.251 303.965,289.381 304.900 M282.975 311.700 L 281.800 313.000 283.100 311.825 C 283.815 311.179,284.400 310.594,284.400 310.525 C 284.400 310.216,284.070 310.488,282.975 311.700 M276.000 318.200 C 275.028 319.190,274.323 320.000,274.433 320.000 C 274.543 320.000,275.428 319.190,276.400 318.200 C 277.372 317.210,278.077 316.400,277.967 316.400 C 277.857 316.400,276.972 317.210,276.000 318.200 M123.800 318.400 C 124.659 319.280,125.452 320.000,125.562 320.000 C 125.672 320.000,125.059 319.280,124.200 318.400 C 123.341 317.520,122.548 316.800,122.438 316.800 C 122.328 316.800,122.941 317.520,123.800 318.400 M127.200 321.325 C 127.200 321.394,127.785 321.979,128.500 322.625 L 129.800 323.800 128.625 322.500 C 127.530 321.288,127.200 321.016,127.200 321.325 M271.375 322.500 L 270.200 323.800 271.500 322.625 C 272.712 321.530,272.984 321.200,272.675 321.200 C 272.606 321.200,272.021 321.785,271.375 322.500 M244.600 343.035 L 243.400 344.066 244.700 343.206 C 245.415 342.733,246.000 342.268,246.000 342.173 C 246.000 341.873,245.831 341.978,244.600 343.035 " stroke="none" fill="#8ac78f" fill-rule="evenodd"></path><path id="path4" d="M185.900 33.495 C 187.055 33.576,188.945 33.576,190.100 33.495 C 191.255 33.414,190.310 33.348,188.000 33.348 C 185.690 33.348,184.745 33.414,185.900 33.495 M209.715 33.496 C 210.988 33.576,212.968 33.575,214.115 33.494 C 215.262 33.414,214.220 33.349,211.800 33.350 C 209.380 33.351,208.442 33.416,209.715 33.496 M178.505 33.887 C 179.114 33.979,180.014 33.977,180.505 33.882 C 180.997 33.787,180.500 33.711,179.400 33.714 C 178.300 33.717,177.897 33.795,178.505 33.887 M220.305 33.883 C 220.802 33.979,221.522 33.975,221.905 33.875 C 222.287 33.775,221.880 33.696,221.000 33.701 C 220.120 33.705,219.807 33.787,220.305 33.883 M172.905 34.287 C 173.514 34.379,174.414 34.377,174.905 34.282 C 175.397 34.187,174.900 34.111,173.800 34.114 C 172.700 34.117,172.297 34.195,172.905 34.287 M225.305 34.287 C 225.914 34.379,226.814 34.377,227.305 34.282 C 227.797 34.187,227.300 34.111,226.200 34.114 C 225.100 34.117,224.697 34.195,225.305 34.287 M167.305 34.687 C 167.914 34.779,168.814 34.777,169.305 34.682 C 169.797 34.587,169.300 34.511,168.200 34.514 C 167.100 34.517,166.697 34.595,167.305 34.687 M230.905 34.687 C 231.514 34.779,232.414 34.777,232.905 34.682 C 233.397 34.587,232.900 34.511,231.800 34.514 C 230.700 34.517,230.297 34.595,230.905 34.687 M163.700 35.076 C 164.085 35.176,164.715 35.176,165.100 35.076 C 165.485 34.975,165.170 34.893,164.400 34.893 C 163.630 34.893,163.315 34.975,163.700 35.076 M234.705 35.083 C 235.202 35.179,235.922 35.175,236.305 35.075 C 236.687 34.975,236.280 34.896,235.400 34.901 C 234.520 34.905,234.207 34.987,234.705 35.083 M140.900 37.876 C 141.285 37.976,141.915 37.976,142.300 37.876 C 142.685 37.775,142.370 37.693,141.600 37.693 C 140.830 37.693,140.515 37.775,140.900 37.876 M257.700 37.876 C 258.085 37.976,258.715 37.976,259.100 37.876 C 259.485 37.775,259.170 37.693,258.400 37.693 C 257.630 37.693,257.315 37.775,257.700 37.876 M328.200 57.452 C 328.420 57.662,330.220 59.352,332.200 61.208 L 335.800 64.582 333.000 61.661 C 331.460 60.055,329.660 58.365,329.000 57.905 C 328.340 57.446,327.980 57.242,328.200 57.452 M67.600 61.400 C 65.961 63.050,64.710 64.400,64.820 64.400 C 64.930 64.400,66.361 63.050,68.000 61.400 C 69.639 59.750,70.890 58.400,70.780 58.400 C 70.670 58.400,69.239 59.750,67.600 61.400 M344.863 80.600 C 344.862 80.820,345.103 81.630,345.400 82.400 C 345.697 83.170,345.945 83.530,345.952 83.200 C 345.958 82.870,345.717 82.060,345.414 81.400 C 345.112 80.740,344.864 80.380,344.863 80.600 M347.701 94.600 C 347.705 95.480,347.787 95.793,347.883 95.295 C 347.979 94.798,347.975 94.078,347.875 93.695 C 347.775 93.313,347.696 93.720,347.701 94.600 M52.093 100.800 C 52.093 101.570,52.175 101.885,52.276 101.500 C 52.376 101.115,52.376 100.485,52.276 100.100 C 52.175 99.715,52.093 100.030,52.093 100.800 M348.093 101.600 C 348.093 102.370,348.175 102.685,348.276 102.300 C 348.376 101.915,348.376 101.285,348.276 100.900 C 348.175 100.515,348.093 100.830,348.093 101.600 M348.501 107.400 C 348.505 108.280,348.587 108.593,348.683 108.095 C 348.779 107.598,348.775 106.878,348.675 106.495 C 348.575 106.113,348.496 106.520,348.501 107.400 M51.301 109.000 C 51.305 109.880,51.387 110.193,51.483 109.695 C 51.579 109.198,51.575 108.478,51.475 108.095 C 51.375 107.713,51.296 108.120,51.301 109.000 M348.928 113.600 C 348.928 115.030,349.001 115.615,349.089 114.900 C 349.178 114.185,349.178 113.015,349.089 112.300 C 349.001 111.585,348.928 112.170,348.928 113.600 M50.914 115.000 C 50.917 116.100,50.995 116.503,51.087 115.895 C 51.179 115.286,51.177 114.386,51.082 113.895 C 50.987 113.403,50.911 113.900,50.914 115.000 M349.301 121.000 C 349.305 121.880,349.387 122.193,349.483 121.695 C 349.579 121.198,349.575 120.478,349.475 120.095 C 349.375 119.713,349.296 120.120,349.301 121.000 M50.514 121.800 C 50.517 122.900,50.595 123.303,50.687 122.695 C 50.779 122.086,50.777 121.186,50.682 120.695 C 50.587 120.203,50.511 120.700,50.514 121.800 M349.742 128.200 C 349.741 130.180,349.808 131.040,349.892 130.112 C 349.976 129.184,349.977 127.564,349.895 126.512 C 349.812 125.460,349.743 126.220,349.742 128.200 M50.142 128.600 C 50.141 130.580,50.208 131.440,50.292 130.512 C 50.376 129.584,50.377 127.964,50.295 126.912 C 50.212 125.860,50.143 126.620,50.142 128.600 M49.753 146.600 C 49.753 149.240,49.818 150.268,49.897 148.884 C 49.975 147.501,49.974 145.341,49.895 144.084 C 49.816 142.828,49.752 143.960,49.753 146.600 M350.153 146.600 C 350.153 149.240,350.218 150.268,350.297 148.884 C 350.375 147.501,350.374 145.341,350.295 144.084 C 350.216 142.828,350.152 143.960,350.153 146.600 M50.140 157.600 C 50.140 159.470,50.209 160.235,50.293 159.300 C 50.377 158.365,50.377 156.835,50.293 155.900 C 50.209 154.965,50.140 155.730,50.140 157.600 M349.740 157.600 C 349.740 159.470,349.809 160.235,349.893 159.300 C 349.977 158.365,349.977 156.835,349.893 155.900 C 349.809 154.965,349.740 155.730,349.740 157.600 M50.520 165.200 C 50.520 166.410,50.595 166.905,50.687 166.300 C 50.778 165.695,50.778 164.705,50.687 164.100 C 50.595 163.495,50.520 163.990,50.520 165.200 M349.052 166.353 C 348.898 168.197,348.852 169.785,348.949 169.883 C 349.200 170.133,349.726 164.177,349.510 163.532 C 349.412 163.239,349.206 164.509,349.052 166.353 M50.893 168.800 C 50.893 169.570,50.975 169.885,51.076 169.500 C 51.176 169.115,51.176 168.485,51.076 168.100 C 50.975 167.715,50.893 168.030,50.893 168.800 M54.480 194.600 C 54.480 195.040,54.624 195.850,54.800 196.400 C 55.054 197.192,55.120 197.233,55.120 196.600 C 55.120 196.160,54.976 195.350,54.800 194.800 C 54.546 194.008,54.480 193.967,54.480 194.600 M345.022 195.422 C 344.872 196.225,344.828 196.962,344.926 197.060 C 345.024 197.157,345.227 196.581,345.378 195.778 C 345.528 194.975,345.572 194.238,345.474 194.140 C 345.376 194.043,345.173 194.619,345.022 195.422 M58.056 210.400 C 58.056 210.730,58.211 211.360,58.400 211.800 C 58.617 212.304,58.744 212.378,58.744 212.000 C 58.744 211.670,58.589 211.040,58.400 210.600 C 58.183 210.096,58.056 210.022,58.056 210.400 M341.429 211.029 C 341.281 211.615,341.238 212.172,341.332 212.266 C 341.427 212.360,341.624 211.958,341.771 211.371 C 341.919 210.785,341.962 210.228,341.868 210.134 C 341.773 210.040,341.576 210.442,341.429 211.029 M61.648 222.400 C 61.642 222.730,61.883 223.540,62.186 224.200 C 62.893 225.745,62.903 225.026,62.200 223.200 C 61.903 222.430,61.655 222.070,61.648 222.400 M197.651 256.638 C 196.513 260.090,195.656 262.989,195.746 263.079 C 195.939 263.273,198.008 257.611,198.989 254.200 C 199.369 252.880,199.885 251.672,200.136 251.517 C 200.467 251.312,200.472 251.112,200.157 250.797 C 199.841 250.481,199.146 252.100,197.651 256.638 M200.431 252.212 C 200.388 252.793,203.468 262.005,203.814 262.331 C 204.159 262.656,204.039 262.256,202.035 256.400 C 201.169 253.870,200.447 251.986,200.431 252.212 M78.600 261.600 C 78.941 262.260,79.311 262.800,79.421 262.800 C 79.531 262.800,79.341 262.260,79.000 261.600 C 78.659 260.940,78.289 260.400,78.179 260.400 C 78.069 260.400,78.259 260.940,78.600 261.600 M321.000 261.600 C 320.659 262.260,320.469 262.800,320.579 262.800 C 320.689 262.800,321.059 262.260,321.400 261.600 C 321.741 260.940,321.931 260.400,321.821 260.400 C 321.711 260.400,321.341 260.940,321.000 261.600 M193.462 269.228 L 191.588 275.047 191.694 287.424 L 191.800 299.800 200.000 299.800 L 208.200 299.800 208.209 287.300 L 208.217 274.800 208.103 287.200 L 207.989 299.600 199.994 299.600 L 192.000 299.600 192.000 287.447 L 192.000 275.295 193.827 269.828 C 194.832 266.821,195.582 264.147,195.495 263.885 C 195.408 263.623,194.493 266.027,193.462 269.228 M204.831 265.399 C 204.786 265.984,207.655 274.478,207.836 274.297 C 207.921 274.212,207.286 272.086,206.425 269.572 C 205.565 267.057,204.847 265.180,204.831 265.399 M317.952 266.900 C 317.690 267.395,317.215 268.250,316.896 268.800 C 316.339 269.759,316.343 269.767,316.988 269.000 C 317.786 268.052,318.905 266.000,318.624 266.000 C 318.516 266.000,318.214 266.405,317.952 266.900 M309.785 279.700 C 309.168 280.635,308.920 281.189,309.232 280.931 C 309.833 280.434,311.364 278.000,311.076 278.000 C 310.983 278.000,310.402 278.765,309.785 279.700 M106.400 300.925 C 106.400 300.994,106.985 301.579,107.700 302.225 L 109.000 303.400 107.825 302.100 C 106.730 300.888,106.400 300.616,106.400 300.925 M112.600 307.600 C 114.128 309.140,115.469 310.400,115.579 310.400 C 115.689 310.400,114.528 309.140,113.000 307.600 C 111.472 306.060,110.131 304.800,110.021 304.800 C 109.911 304.800,111.072 306.060,112.600 307.600 M286.989 307.700 L 284.200 310.600 287.100 307.811 C 289.794 305.220,290.183 304.800,289.889 304.800 C 289.828 304.800,288.523 306.105,286.989 307.700 M121.000 316.000 C 123.192 318.200,125.075 320.000,125.185 320.000 C 125.295 320.000,123.592 318.200,121.400 316.000 C 119.208 313.800,117.325 312.000,117.215 312.000 C 117.105 312.000,118.808 313.800,121.000 316.000 M278.192 316.500 L 274.600 320.200 278.300 316.608 C 281.736 313.272,282.182 312.800,281.892 312.800 C 281.832 312.800,280.167 314.465,278.192 316.500 M126.800 321.400 C 127.546 322.170,128.247 322.800,128.357 322.800 C 128.467 322.800,127.946 322.170,127.200 321.400 C 126.454 320.630,125.753 320.000,125.643 320.000 C 125.533 320.000,126.054 320.630,126.800 321.400 M272.778 321.500 L 271.400 323.000 272.900 321.622 C 274.296 320.338,274.584 320.000,274.278 320.000 C 274.212 320.000,273.537 320.675,272.778 321.500 M132.000 325.725 C 132.000 325.794,132.585 326.379,133.300 327.025 L 134.600 328.200 133.425 326.900 C 132.330 325.688,132.000 325.416,132.000 325.725 M266.575 326.900 L 265.400 328.200 266.700 327.025 C 267.415 326.379,268.000 325.794,268.000 325.725 C 268.000 325.416,267.670 325.688,266.575 326.900 M151.200 340.546 C 151.200 340.656,151.740 341.130,152.400 341.600 C 153.060 342.070,153.600 342.364,153.600 342.254 C 153.600 342.144,153.060 341.670,152.400 341.200 C 151.740 340.730,151.200 340.436,151.200 340.546 M246.900 341.640 C 245.965 342.302,245.200 342.933,245.200 343.041 C 245.200 343.150,246.010 342.681,247.000 342.000 C 247.990 341.319,248.800 340.680,248.800 340.581 C 248.800 340.305,248.724 340.348,246.900 341.640 M157.174 344.724 C 157.709 345.159,158.699 345.819,159.374 346.191 L 160.600 346.867 159.626 346.076 C 159.091 345.641,158.101 344.981,157.426 344.609 L 156.200 343.933 157.174 344.724 M242.100 344.846 C 240.737 345.719,240.295 346.306,241.500 345.643 C 242.418 345.139,243.856 344.027,243.600 344.019 C 243.490 344.016,242.815 344.388,242.100 344.846 M235.700 348.846 C 234.337 349.719,233.895 350.306,235.100 349.643 C 236.018 349.139,237.456 348.027,237.200 348.019 C 237.090 348.016,236.415 348.388,235.700 348.846 M220.300 357.429 C 218.805 358.240,218.896 358.578,220.400 357.800 C 221.060 357.459,221.600 357.094,221.600 356.990 C 221.600 356.732,221.557 356.747,220.300 357.429 M186.400 360.996 C 186.400 361.270,188.849 362.484,189.032 362.301 C 189.119 362.214,188.562 361.844,187.795 361.478 C 187.028 361.112,186.400 360.895,186.400 360.996 M211.600 361.800 C 210.610 362.330,209.942 362.772,210.116 362.782 C 210.541 362.806,213.600 361.234,213.600 360.992 C 213.600 360.727,213.617 360.720,211.600 361.800 " stroke="none" fill="#a8cea6" fill-rule="evenodd"></path></g></svg>